<?xml version="1.0" encoding="UTF-8" standalone="no"?>
<!-- Created with Inkscape (http://www.inkscape.org/) -->

<svg
   xmlns:dc="http://purl.org/dc/elements/1.1/"
   xmlns:cc="http://creativecommons.org/ns#"
   xmlns:rdf="http://www.w3.org/1999/02/22-rdf-syntax-ns#"
   xmlns:svg="http://www.w3.org/2000/svg"
   xmlns="http://www.w3.org/2000/svg"
   xmlns:sodipodi="http://sodipodi.sourceforge.net/DTD/sodipodi-0.dtd"
   xmlns:inkscape="http://www.inkscape.org/namespaces/inkscape"
   width="206.88937"
   height="109.25212"
   id="svg2"
   version="1.1"
   inkscape:version="0.48.2 r9819"
   sodipodi:docname="karban_logo.svg"
   inkscape:export-filename="/Users/matthiasendler/Code/snippets/PHP/karban/assets/karban.png"
   inkscape:export-xdpi="256.19"
   inkscape:export-ydpi="256.19">
  <defs
     id="defs4">
    <inkscape:perspective
       sodipodi:type="inkscape:persp3d"
       inkscape:vp_x="0 : 526.18109 : 1"
       inkscape:vp_y="0 : 1000 : 0"
       inkscape:vp_z="744.09448 : 526.18109 : 1"
       inkscape:persp3d-origin="372.04724 : 350.78739 : 1"
       id="perspective10" />
  </defs>
  <sodipodi:namedview
     id="base"
     pagecolor="#ffffff"
     bordercolor="#666666"
     borderopacity="1.0"
     inkscape:pageopacity="0.0"
     inkscape:pageshadow="2"
     inkscape:zoom="3.6666667"
     inkscape:cx="51.393021"
     inkscape:cy="72"
     inkscape:document-units="px"
     inkscape:current-layer="g2823"
     showgrid="false"
     showguides="true"
     inkscape:guide-bbox="true"
     inkscape:window-width="1280"
     inkscape:window-height="752"
     inkscape:window-x="0"
     inkscape:window-y="0"
     inkscape:window-maximized="1" />
  <metadata
     id="metadata7">
    <rdf:RDF>
      <cc:Work
         rdf:about="">
        <dc:format>image/svg+xml</dc:format>
        <dc:type
           rdf:resource="http://purl.org/dc/dcmitype/StillImage" />
        <dc:title></dc:title>
      </cc:Work>
    </rdf:RDF>
  </metadata>
  <g
     inkscape:label="Ebene 1"
     inkscape:groupmode="layer"
     id="layer1"
     transform="translate(-79.870133,-283.69455)">
    <g
       id="g2823"
       transform="matrix(0.67964008,0,0,0.67964008,58.726719,108.38436)">
      <g
         transform="matrix(0.35427459,0,0,0.35427459,61.420725,183.18878)"
         id="g3623">
        <path
           id="path2825"
           style="font-size:144px;font-style:normal;font-variant:normal;font-weight:normal;font-stretch:normal;fill:#000000;fill-opacity:1;stroke:none;font-family:Qhytsdakx;-inkscape-font-specification:Qhytsdakx"
           d="m 132.40331,516.80998 -27.93532,0 0,-81.87939 c -6e-5,-3.85306 -1.39147,-7.06402 -4.17424,-9.63287 -2.568819,-2.56865 -5.779773,-3.85304 -9.632869,-3.85315 l -10.917252,0 0,95.36541 -27.293129,0 0,-229.58338 27.293129,0 0,107.24594 10.917252,0 c 3.639033,1.3e-4 6.742955,-1.28425 9.311773,-3.85315 2.782776,-2.78269 4.174186,-6.10068 4.174246,-9.95396 l 0,-93.75993 27.29313,0 0,93.43883 c -9e-5,12.6299 -5.56574,21.72761 -16.69698,27.29313 4.92339,1.92669 9.09763,5.6728 12.52273,11.23835 3.42494,5.56577 5.13744,11.1314 5.13753,16.69697 l 0,81.2372" />
        <path
           id="path2827"
           style="font-size:144px;font-style:normal;font-variant:normal;font-weight:normal;font-stretch:normal;fill:#000000;fill-opacity:1;stroke:none;font-family:Qhytsdakx;-inkscape-font-specification:Qhytsdakx"
           d="m 234.06018,324.79479 -0.32109,192.01519 -27.61423,0 0,-80.9161 -26.97203,0 0,80.9161 -27.29313,0 0,-192.01519 c -1e-5,-11.34518 3.96017,-20.97803 11.88054,-28.89861 7.92033,-8.13418 17.44616,-12.20139 28.57751,-12.20163 11.55938,2.4e-4 21.40631,4.06745 29.5408,12.20163 8.13434,7.92058 12.20154,17.55343 12.20163,28.89861 m -27.93532,85.41144 0,-86.05363 c -6e-5,-3.63889 -1.28444,-6.74281 -3.85314,-9.31178 -2.56882,-2.7826 -5.77978,-4.17402 -9.63287,-4.17424 -3.8532,2.2e-4 -7.06415,1.39164 -9.63287,4.17424 -2.5688,2.56897 -3.85318,5.67289 -3.85315,9.31178 l 0,86.05363 26.97203,0" />
        <path
           id="path2829"
           style="font-size:144px;font-style:normal;font-variant:normal;font-weight:normal;font-stretch:normal;fill:#000000;fill-opacity:1;stroke:none;font-family:Qhytsdakx;-inkscape-font-specification:Qhytsdakx"
           d="m 333.77543,375.2068 c -9e-5,5.56579 -1.7126,11.02442 -5.13753,16.37588 -3.42511,5.35173 -7.92045,8.88378 -13.48602,10.59615 12.20155,4.92358 18.30237,13.91426 18.30246,26.97204 l 0,87.65911 -26.97204,0 0,-88.6224 c -7e-5,-8.13431 -4.06728,-12.62965 -12.20163,-13.48602 l -15.0915,0 0,102.10842 -27.61422,0 0,-229.90448 41.10024,0 c 11.34531,2.5e-4 20.97818,4.06746 28.89861,12.20164 8.13433,7.92058 12.20154,17.55342 12.20163,28.8986 l 0,47.20106 m -27.29313,-0.64219 0,-47.20106 c -7e-5,-3.63888 -1.39148,-6.74281 -4.17424,-9.31177 -2.56883,-2.78263 -5.77977,-4.17404 -9.63287,-4.17425 l -13.48602,0 0,74.1731 14.7704,0 c 8.34842,-0.85612 12.52266,-5.35146 12.52273,-13.48602" />
        <path
           id="path2831"
           style="font-size:144px;font-style:normal;font-variant:normal;font-weight:normal;font-stretch:normal;fill:#000000;fill-opacity:1;stroke:none;font-family:Qhytsdakx;-inkscape-font-specification:Qhytsdakx"
           d="m 434.74496,375.2068 c -9e-5,5.56579 -1.7126,11.02442 -5.13753,16.37588 -3.42511,5.35173 -7.81342,8.88378 -13.16492,10.59615 11.98748,4.92358 17.98126,13.91426 17.98135,26.97204 l 0,48.16434 c -9e-5,11.34543 -3.96027,20.76421 -11.88054,28.25642 -7.70636,7.49225 -17.33923,11.23835 -28.8986,11.23835 l -41.10025,0 0,-229.90448 41.10025,0 c 11.34531,2.5e-4 20.97818,4.06746 28.8986,12.20164 8.13434,7.92058 12.20155,17.55342 12.20164,28.8986 l 0,47.20106 m -27.29313,-0.64219 0,-47.20106 c -7e-5,-3.63888 -1.39148,-6.74281 -4.17425,-9.31177 -2.56883,-2.78263 -5.67273,-4.17404 -9.31177,-4.17425 l -13.80711,0 0,74.1731 15.09149,0 c 8.13436,-0.85612 12.20157,-5.35146 12.20164,-13.48602 m 0,101.46622 0,-47.84325 c -7e-5,-8.13431 -4.06728,-12.62965 -12.20164,-13.48602 l -15.09149,0 0,74.81529 13.80711,0 c 3.63904,4e-5 6.74294,-1.28434 9.31177,-3.85315 2.78277,-2.78278 4.17418,-5.99374 4.17425,-9.63287" />
        <path
           id="path2833"
           style="font-size:144px;font-style:normal;font-variant:normal;font-weight:normal;font-stretch:normal;fill:#000000;fill-opacity:1;stroke:none;font-family:Qhytsdakx;-inkscape-font-specification:Qhytsdakx"
           d="m 536.34162,324.79479 -0.32109,192.01519 -27.61423,0 0,-80.9161 -26.97203,0 0,80.9161 -27.29313,0 0,-192.01519 c 0,-11.34518 3.96016,-20.97803 11.88054,-28.89861 7.92034,-8.13418 17.44615,-12.20139 28.57751,-12.20163 11.55938,2.4e-4 21.40631,4.06745 29.5408,12.20163 8.13433,7.92058 12.20154,17.55343 12.20163,28.89861 m -27.93532,85.41144 0,-86.05363 c -6e-5,-3.63889 -1.28445,-6.74281 -3.85315,-9.31178 -2.56883,-2.7826 -5.77976,-4.17402 -9.63286,-4.17424 -3.8532,2.2e-4 -7.06415,1.39164 -9.63287,4.17424 -2.56881,2.56897 -3.8532,5.67289 -3.85315,9.31178 l 0,86.05363 26.97203,0" />
        <path
           id="path2835"
           style="font-size:144px;font-style:normal;font-variant:normal;font-weight:normal;font-stretch:normal;fill:#000000;fill-opacity:1;stroke:none;font-family:Qhytsdakx;-inkscape-font-specification:Qhytsdakx"
           d="m 636.05687,326.40026 -0.3211,190.40972 -27.61422,0 0,-191.05191 c -7e-5,-3.63888 -1.39148,-6.7428 -4.17424,-9.31177 -2.56884,-2.78263 -5.67274,-4.17402 -9.31178,-4.17424 -3.85319,2.2e-4 -7.17118,1.39161 -9.95396,4.17424 -2.56881,2.56897 -3.8532,5.67289 -3.85315,9.31177 l 0,191.05191 -27.29313,0 0,-190.40972 c 0,-11.34517 3.96016,-20.97802 11.88054,-28.8986 7.92034,-8.13418 17.55318,-12.20139 28.89861,-12.20164 11.55937,2.5e-4 21.4063,4.06746 29.54079,12.20164 8.13434,7.92058 12.20155,17.55343 12.20164,28.8986" />
      </g>
    </g>
    <flowRoot
       xml:space="preserve"
       id="flowRoot2995"
       style="fill:black;stroke:none;stroke-opacity:1;stroke-width:1px;stroke-linejoin:miter;stroke-linecap:butt;fill-opacity:1;font-family:Baskerville;font-style:normal;font-weight:normal;font-size:40px;line-height:125%;letter-spacing:0px;word-spacing:0px;-inkscape-font-specification:Baskerville;font-stretch:normal;font-variant:normal"><flowRegion
         id="flowRegion2997"><rect
           id="rect2999"
           width="141"
           height="60.272728"
           x="-91.63636"
           y="-11.020606" /></flowRegion><flowPara
         id="flowPara3001"></flowPara></flowRoot>  </g>
</svg>
